<?xml version="1.0" encoding="UTF-8"?>
<svg version="1.1" viewBox="-50 -50 200 200" xmlns="http://www.w3.org/2000/svg">
	<defs>
		<style><![CDATA[
.class1 {
  fill:none;
  paint-order:fill markers stroke;
  stroke:#ffffec;
  stroke-dasharray:none;
  stroke-linecap:round;
  stroke-linejoin:round;
  stroke-miterlimit:4;
  stroke-opacity:1;
  null:0.26458334;
}
]]></style>
	</defs>
	<g fill="none" stroke="#fff" stroke-linecap="round" stroke-linejoin="round">
		<path d="m99.5 50-14.498 35.002-35.002 14.498-35.002-14.498-14.498-35.002 14.498-35.002 35.002-14.498 35.002 14.498 14.498 35.002" null="1.0001" style="paint-order:fill markers stroke"/>
		<path d="m77.082 23.997 15.466 26.003-11.997-29.736-24.736-9.724 21.267 13.457" null="1.0001" style="paint-order:fill markers stroke"/>
		<g null="1.0001">
			<path d="m65.435 88.908-1.2993-2.9234-7.3266 3.2431-1.552-4.2846-2.6605 1.1601 2.6863 7.1256 10.152-4.3207" style="paint-order:fill markers stroke"/>
			<path d="m65.435 88.908-1.2993-2.9234-7.3266 3.2431-1.552-4.2846-2.6605 1.1601 2.6863 7.1256 10.152-4.3207" style="paint-order:fill markers stroke"/>
			<path d="m55.258 84.943 1.2993 2.9234 7.3267-3.2431 1.5519 4.2846 2.6605-1.1601-2.6863-7.1256-10.152 4.3207" style="paint-order:fill markers stroke"/>
			<path d="m75.975 81.881a3.1281 3.0187 0 0 1-3.1281 3.0187 3.1281 3.0187 0 0 1-3.1281-3.0187 3.1281 3.0187 0 0 1 3.1281-3.0187 3.1281 3.0187 0 0 1 3.1281 3.0187z" stop-color="#000000" style="font-variation-settings:normal;paint-order:fill markers stroke"/>
			<path d="m92.227 55.246a3.1281 3.0187 0 0 1-3.1281 3.0187 3.1281 3.0187 0 0 1-3.1281-3.0187 3.1281 3.0187 0 0 1 3.1281-3.0187 3.1281 3.0187 0 0 1 3.1281 3.0187z" stop-color="#000000" style="font-variation-settings:normal;paint-order:fill markers stroke"/>
			<path d="m50.001 74.879-17.592-7.2869-7.2869-17.592 7.2869-17.592 17.592-7.2869 17.592 7.2869 7.2869 17.592-7.2869 17.592-17.592 7.2869" style="paint-order:fill markers stroke"/>
		</g>
		<g null="1.0001">
			<path d="m0.50003 50h24.622" style="paint-order:fill markers stroke"/>
			<path d="m14.998 14.998 17.411 17.41" style="paint-order:fill markers stroke"/>
			<path d="m14.998 85.002 17.411-17.41" style="paint-order:fill markers stroke"/>
			<path d="m65.509 61.917a3.1281 3.0187 0 0 1-3.1281 3.0188 3.1281 3.0187 0 0 1-3.1281-3.0188 3.1281 3.0187 0 0 1 3.1281-3.0187 3.1281 3.0187 0 0 1 3.1281 3.0187z" stop-color="#000000" style="font-variation-settings:normal;paint-order:fill markers stroke"/>
			<path d="m70.39 49.929a3.1281 3.0187 0 0 1-3.1281 3.0187 3.1281 3.0187 0 0 1-3.1281-3.0187 3.1281 3.0187 0 0 1 3.1281-3.0188 3.1281 3.0187 0 0 1 3.1281 3.0188z" stop-color="#000000" style="font-variation-settings:normal;paint-order:fill markers stroke"/>
			<path d="m50 0.50003 0.0013 24.621" style="paint-order:fill markers stroke"/>
			<path d="m50.001 74.879-0.0013 24.621" style="paint-order:fill markers stroke"/>
		</g>
		<path d="m15.965 3.3157 1.1013 4.7545-1.1013 4.7545 2.2502-4.7545z" display="none" null=".26458"/>
		<path d="m15.865 3.3191 1.232 2.536 0.43529-0.85035 0.06745 2.5375 0.53033 0.5244-0.52705 0.52769-0.05166 2.5379-0.44058-0.84762-1.2161 2.5436 1.0865-4.7579z" display="none" null=".26458"/>
	</g>
</svg>
