<?xml version="1.0" encoding="UTF-8" standalone="no"?>
<svg
   xmlns:dc="http://purl.org/dc/elements/1.1/"
   xmlns:cc="http://creativecommons.org/ns#"
   xmlns:rdf="http://www.w3.org/1999/02/22-rdf-syntax-ns#"
   xmlns:svg="http://www.w3.org/2000/svg"
   xmlns="http://www.w3.org/2000/svg"
   xmlns:sodipodi="http://sodipodi.sourceforge.net/DTD/sodipodi-0.dtd"
   xmlns:inkscape="http://www.inkscape.org/namespaces/inkscape"
   width="61.003078"
   height="61.003075"
   viewBox="0 0 16.140398 16.140397"
   version="1.1"
   id="svg8"
   sodipodi:docname="base.svg"
   inkscape:version="1.0.2 (e86c870879, 2021-01-15)">
  <defs
     id="defs2">
    <style
       id="style2338"><![CDATA[
.class1 {
  fill:none;
  paint-order:fill markers stroke;
  stroke:#ffffec;
  stroke-dasharray:none;
  stroke-linecap:round;
  stroke-linejoin:round;
  stroke-miterlimit:4;
  stroke-opacity:1;
  stroke-width:0.26458334;
}
]]></style>
  </defs>
  <sodipodi:namedview
     id="base"
     pagecolor="#ff64ff"
     bordercolor="#666666"
     borderopacity="1.0"
     inkscape:pageopacity="0"
     inkscape:pageshadow="2"
     inkscape:zoom="5.6568543"
     inkscape:cx="-12.913709"
     inkscape:cy="25.614128"
     inkscape:document-units="px"
     inkscape:current-layer="layer1"
     inkscape:document-rotation="0"
     showgrid="false"
     inkscape:pagecheckerboard="false"
     showborder="false"
     showguides="true"
     inkscape:guide-bbox="true"
     inkscape:window-width="1920"
     inkscape:window-height="1020"
     inkscape:window-x="1440"
     inkscape:window-y="0"
     inkscape:window-maximized="1"
     fit-margin-top="0"
     fit-margin-left="0"
     fit-margin-right="0"
     fit-margin-bottom="0"
     units="px">
    <sodipodi:guide
       position="8.070405,8.0701983"
       orientation="0,1"
       id="guide1670"
       inkscape:label=""
       inkscape:locked="false"
       inkscape:color="rgb(0,0,255)" />
    <sodipodi:guide
       position="8.070405,8.0701983"
       orientation="-1,0"
       id="guide1672"
       inkscape:label=""
       inkscape:locked="false"
       inkscape:color="rgb(0,0,255)" />
  </sodipodi:namedview>
  <metadata
     id="metadata5">
    <rdf:RDF>
      <cc:Work
         rdf:about="">
        <dc:format>image/svg+xml</dc:format>
        <dc:type
           rdf:resource="http://purl.org/dc/dcmitype/StillImage" />
        <dc:title></dc:title>
      </cc:Work>
    </rdf:RDF>
    <rdf:RDF>
      <cc:Work
         rdf:about="">
        <dc:title></dc:title>
      </cc:Work>
    </rdf:RDF>
  </metadata>
  <g
     inkscape:label="Layer 1"
     inkscape:groupmode="layer"
     id="layer1"
     transform="translate(8.070405,8.0701978)">
    <g
       id="g1668"
       transform="translate(-0.02692687,0.13364)"
       class="class1">
      <g
         id="g1650"
         style="stroke-width:0.26458334;stroke-miterlimit:4;stroke-dasharray:none;paint-order:fill markers stroke;fill:none;stroke:#ffffec;stroke-opacity:1;stroke-linejoin:round;stroke-linecap:round">
        <path
           id="path849"
           style="fill:none;fill-opacity:1;stroke:#ffffec;stroke-width:0.26458334;stroke-linecap:round;stroke-linejoin:round;stroke-opacity:1;stroke-miterlimit:4;stroke-dasharray:none;paint-order:fill markers stroke"
           d="M 7.9646286,-0.13363922 5.6396691,5.4793095 0.02672043,7.804269 -5.5862283,5.4793095 -7.9111877,-0.13363922 -5.5862283,-5.7465879 0.02672043,-8.0715474 5.6396691,-5.7465879 7.9646286,-0.13363922"
           sodipodi:nodetypes="ccccccccc" />
        <path
           style="fill:none;stroke:#ffffec;stroke-width:0.26458334;stroke-linecap:round;stroke-linejoin:round;stroke-miterlimit:4;stroke-dasharray:none;stroke-opacity:1;paint-order:fill markers stroke"
           d="M 4.3696718,-4.5747332 6.8497944,-0.40483704 4.9258635,-5.173408 0.95919874,-6.7327621 4.3696718,-4.5747332"
           id="path877"
           sodipodi:nodetypes="ccccc"
           transform="translate(0,0.27119782)" />
        <path
           id="path1577"
           style="fill:none;fill-opacity:1;stroke:#ffffec;stroke-width:0.26458334;stroke-linecap:round;stroke-linejoin:round;stroke-miterlimit:4;stroke-dasharray:none;stroke-dashoffset:0;stroke-opacity:1;paint-order:fill markers stroke"
           d="M 2.6317767,6.2706252 2.4234177,5.8018163 1.2485026,6.3218879 0.9996286,5.6347981 0.57298817,5.8208333 1.0037627,6.9635025 2.6317767,6.2706252"
           sodipodi:nodetypes="ccccccc"
           transform="translate(-0.12979284,-0.16487178)" />
        <path
           id="path1580"
           style="fill:none;fill-opacity:1;stroke:#ffffec;stroke-width:0.26458334;stroke-linecap:round;stroke-linejoin:round;stroke-miterlimit:4;stroke-dasharray:none;stroke-dashoffset:0;stroke-opacity:1;paint-order:fill markers stroke"
           d="M 2.6317767,6.2706252 2.4234177,5.8018163 1.2485026,6.3218879 0.9996286,5.6347981 0.57298817,5.8208333 1.0037627,6.9635025 2.6317767,6.2706252"
           sodipodi:nodetypes="ccccccc"
           transform="translate(-0.12979284,-0.16487178)" />
        <path
           id="path1582"
           style="fill:none;fill-opacity:1;stroke:#ffffec;stroke-width:0.26458334;stroke-linecap:round;stroke-linejoin:round;stroke-miterlimit:4;stroke-dasharray:none;stroke-dashoffset:0;stroke-opacity:1;paint-order:fill markers stroke"
           d="M 2.6317767,6.2706252 2.4234177,5.8018163 1.2485026,6.3218879 0.9996286,5.6347981 0.57298817,5.8208333 1.0037627,6.9635025 2.6317767,6.2706252"
           sodipodi:nodetypes="ccccccc"
           transform="rotate(180,1.7508062,5.8702758)" />
        <path
           id="path1586"
           style="font-variation-settings:normal;opacity:1;vector-effect:none;fill:none;fill-opacity:1;fill-rule:evenodd;stroke:#ffffec;stroke-width:1;stroke-linecap:round;stroke-linejoin:round;stroke-miterlimit:4;stroke-dasharray:none;stroke-dashoffset:0;stroke-opacity:1;paint-order:fill markers stroke;stop-color:#000000;stop-opacity:1"
           transform="matrix(0.26458333,0,0,0.26458333,1.3741793,1.2137759)"
           d="M 10.650785,14.230522 A 1.8959258,1.8296386 0 0 1 8.754859,16.060161 1.8959258,1.8296386 0 0 1 6.8589332,14.230522 1.8959258,1.8296386 0 0 1 8.754859,12.400884 1.8959258,1.8296386 0 0 1 10.650785,14.230522 Z" />
        <path
           id="ellipse1588"
           style="font-variation-settings:normal;opacity:1;vector-effect:none;fill:none;fill-opacity:1;fill-rule:evenodd;stroke:#ffffec;stroke-width:1;stroke-linecap:round;stroke-linejoin:round;stroke-miterlimit:4;stroke-dasharray:none;stroke-dashoffset:0;stroke-opacity:1;paint-order:fill markers stroke;stop-color:#000000;stop-opacity:1"
           transform="matrix(0.26458333,0,0,0.26458333,3.9803207,-3.057591)"
           d="M 10.650785,14.230522 A 1.8959258,1.8296386 0 0 1 8.754859,16.060161 1.8959258,1.8296386 0 0 1 6.8589332,14.230522 1.8959258,1.8296386 0 0 1 8.754859,12.400884 1.8959258,1.8296386 0 0 1 10.650785,14.230522 Z" />
        <path
           id="path1590"
           style="fill:none;fill-opacity:0.97848;stroke:#ffffec;stroke-width:1.00000002;stroke-linecap:round;stroke-linejoin:round;stroke-miterlimit:4;stroke-dasharray:none;stroke-dashoffset:0;stroke-opacity:1;paint-order:fill markers stroke"
           transform="matrix(0.26458333,0,0,0.26458333,2.0654885e-4,5.8251354)"
           d="m 0.100991,-7.4422998 -10.662501,-4.4165522 -4.416552,-10.6625 4.416552,-10.662501 10.66250019,-4.416553 10.66250081,4.416552 4.416553,10.662501 -4.416553,10.662501 -10.6625,4.4165522"
           sodipodi:nodetypes="ccccccccc" />
        <path
           style="fill:none;fill-opacity:1;stroke:#ffffec;stroke-width:1.00000002;stroke-linecap:round;stroke-linejoin:round;stroke-opacity:1;stroke-miterlimit:4;stroke-dasharray:none;paint-order:fill markers stroke"
           d="m -29.900552,-0.50509311 14.923271,1.17e-6"
           id="path1594"
           transform="scale(0.26458333)" />
        <path
           style="fill:none;stroke:#ffffec;stroke-width:1.00000002;stroke-linecap:round;stroke-linejoin:round;stroke-opacity:1;stroke-miterlimit:4;stroke-dasharray:none;paint-order:fill markers stroke"
           d="m -21.113304,-21.719387 10.552575,10.551794"
           id="path1596"
           transform="scale(0.26458333)" />
        <path
           style="fill:none;stroke:#ffffec;stroke-width:1.00000002;stroke-linecap:round;stroke-linejoin:round;stroke-opacity:1;stroke-miterlimit:4;stroke-dasharray:none;paint-order:fill markers stroke"
           d="M -21.113304,20.709201 -10.560729,10.157408"
           id="path1604"
           transform="scale(0.26458333)" />
        <path
           id="ellipse1606"
           style="font-variation-settings:normal;opacity:1;vector-effect:none;fill:none;fill-opacity:1;fill-rule:evenodd;stroke:#ffffec;stroke-width:1;stroke-linecap:round;stroke-linejoin:round;stroke-miterlimit:4;stroke-dasharray:none;stroke-dashoffset:0;stroke-opacity:1;paint-order:fill markers stroke;stop-color:#000000;stop-opacity:1"
           transform="matrix(0.26458333,0,0,0.26458333,-0.30426156,-1.9877548)"
           d="M 10.650785,14.230522 A 1.8959258,1.8296386 0 0 1 8.754859,16.060161 1.8959258,1.8296386 0 0 1 6.8589332,14.230522 1.8959258,1.8296386 0 0 1 8.754859,12.400884 1.8959258,1.8296386 0 0 1 10.650785,14.230522 Z" />
        <path
           id="ellipse1608"
           style="font-variation-settings:normal;opacity:1;vector-effect:none;fill:none;fill-opacity:1;fill-rule:evenodd;stroke:#ffffec;stroke-width:1;stroke-linecap:round;stroke-linejoin:round;stroke-miterlimit:4;stroke-dasharray:none;stroke-dashoffset:0;stroke-opacity:1;paint-order:fill markers stroke;stop-color:#000000;stop-opacity:1"
           transform="matrix(0.26458333,0,0,0.26458333,0.47849401,-3.9101141)"
           d="M 10.650785,14.230522 A 1.8959258,1.8296386 0 0 1 8.754859,16.060161 1.8959258,1.8296386 0 0 1 6.8589332,14.230522 1.8959258,1.8296386 0 0 1 8.754859,12.400884 1.8959258,1.8296386 0 0 1 10.650785,14.230522 Z" />
      </g>
      <path
         style="fill:none;stroke:#ffffec;stroke-width:1.00000002;stroke-linecap:round;stroke-linejoin:round;stroke-opacity:1;stroke-miterlimit:4;stroke-dasharray:none;paint-order:fill markers stroke"
         d="m 0.1009906,-30.506636 7.8025e-4,14.92249"
         id="path1598"
         transform="scale(0.26458333)" />
      <path
         style="fill:none;stroke:#ffffec;stroke-width:1.00000002;stroke-linecap:round;stroke-linejoin:round;stroke-opacity:1;stroke-miterlimit:4;stroke-dasharray:none;paint-order:fill markers stroke"
         d="M 0.10177166,14.57396 0.1009906,29.49645"
         id="path1602"
         transform="scale(0.26458333)" />
    </g>
    <path
       style="display:none;fill:#000000;fill-opacity:1;stroke:#3fffec;stroke-width:1px;stroke-linecap:butt;stroke-linejoin:round;stroke-opacity:1"
       d="M 29.112488,-18.475 33.274994,-0.50509312 29.112488,17.464814 37.617334,-0.50509312 Z"
       id="path1610"
       transform="matrix(0.26458333,0,0,0.26458333,0.19182453,0.13364)"
       sodipodi:nodetypes="ccccc" />
    <path
       style="display:none;fill:#000000;fill-opacity:1;stroke:#ffb61b;stroke-width:1px;stroke-linecap:butt;stroke-linejoin:round;stroke-opacity:1"
       d="m 29.112488,-18.475 4.626349,9.5991747 1.655193,-3.2087837 0.225098,9.5913021 1.998206,1.98821378 L 35.619128,1.4831207 35.39403,11.074423 33.738837,7.8656391 29.112488,17.464814 33.274994,-0.50509312 Z"
       id="path1616"
       transform="matrix(0.26458205,-8.231883e-4,8.231883e-4,0.26458205,0.10749197,0.16103094)"
       sodipodi:nodetypes="ccccccccccc"
       inkscape:transform-center-x="-8.927209"
       inkscape:transform-center-y="0.0031460332" />
  </g>
</svg>
