<?xml version="1.0" encoding="UTF-8" standalone="no"?>
<svg
   xmlns:dc="http://purl.org/dc/elements/1.1/"
   xmlns:cc="http://creativecommons.org/ns#"
   xmlns:rdf="http://www.w3.org/1999/02/22-rdf-syntax-ns#"
   xmlns:svg="http://www.w3.org/2000/svg"
   xmlns="http://www.w3.org/2000/svg"
   width="210mm"
   height="297mm"
   viewBox="0 0 210 297"
   version="1.1"
   id="svg8">
  <defs
     id="defs2" />
  <metadata
     id="metadata5">
    <rdf:RDF>
      <cc:Work
         rdf:about="">
        <dc:format>image/svg+xml</dc:format>
        <dc:type
           rdf:resource="http://purl.org/dc/dcmitype/StillImage" />
        <dc:title></dc:title>
      </cc:Work>
    </rdf:RDF>
  </metadata>
  <g
     id="layer1">
    <g
       id="g1668"
       transform="translate(-0.02692687,0.13364)">
      <g
         id="g1650">
        <path
           id="path849"
           style="fill:#000000;fill-opacity:1;stroke:#fffffe;stroke-width:0.264583;stroke-linecap:round;stroke-linejoin:round;stroke-opacity:1"
           d="M 7.9646286,-0.13363922 5.6396691,5.4793095 0.02672043,7.804269 -5.5862283,5.4793095 -7.9111877,-0.13363922 -5.5862283,-5.7465879 0.02672043,-8.0715474 5.6396691,-5.7465879 7.9646286,-0.13363922" />
        <path
           style="fill:#000000;stroke:#fffffd;stroke-width:0.265;stroke-linecap:round;stroke-linejoin:round;stroke-miterlimit:4;stroke-dasharray:none;stroke-opacity:1;paint-order:normal"
           d="M 4.3696718,-4.5747332 6.8497944,-0.40483704 4.9258635,-5.173408 0.95919874,-6.7327621 4.3696718,-4.5747332"
           id="path877"
           transform="translate(0,0.27119782)" />
        <path
           id="path1577"
           style="fill:#000000;fill-opacity:1;stroke:#ffffff;stroke-width:0.264583;stroke-linecap:round;stroke-linejoin:round;stroke-miterlimit:4;stroke-dasharray:none;stroke-dashoffset:0;stroke-opacity:1;paint-order:normal"
           d="M 2.6317767,6.2706252 2.4234177,5.8018163 1.2485026,6.3218879 0.9996286,5.6347981 0.57298817,5.8208333 1.0037627,6.9635025 2.6317767,6.2706252"
           transform="translate(-0.12979284,-0.16487178)" />
        <path
           id="path1580"
           style="fill:#000000;fill-opacity:1;stroke:#ffffff;stroke-width:0.264583;stroke-linecap:round;stroke-linejoin:round;stroke-miterlimit:4;stroke-dasharray:none;stroke-dashoffset:0;stroke-opacity:1;paint-order:normal"
           d="M 2.6317767,6.2706252 2.4234177,5.8018163 1.2485026,6.3218879 0.9996286,5.6347981 0.57298817,5.8208333 1.0037627,6.9635025 2.6317767,6.2706252"
           transform="translate(-0.12979284,-0.16487178)" />
        <path
           id="path1582"
           style="fill:#000000;fill-opacity:1;stroke:#ffffff;stroke-width:0.264583;stroke-linecap:round;stroke-linejoin:round;stroke-miterlimit:4;stroke-dasharray:none;stroke-dashoffset:0;stroke-opacity:1;paint-order:normal"
           d="M 2.6317767,6.2706252 2.4234177,5.8018163 1.2485026,6.3218879 0.9996286,5.6347981 0.57298817,5.8208333 1.0037627,6.9635025 2.6317767,6.2706252"
           transform="rotate(180,1.7508062,5.8702758)" />
        <ellipse
           style="font-variation-settings:normal;opacity:1;vector-effect:none;fill:none;fill-opacity:1;fill-rule:evenodd;stroke:#ffffff;stroke-width:0.999999;stroke-linecap:butt;stroke-linejoin:miter;stroke-miterlimit:4;stroke-dasharray:none;stroke-dashoffset:0;stroke-opacity:1;stop-color:#000000;stop-opacity:1"
           id="path1586"
           transform="matrix(0.26458333,0,0,0.26458333,1.3741793,1.2137759)"
           ry="1.8296386"
           rx="1.8959258"
           cy="14.230522"
           cx="8.754859" />
        <ellipse
           style="font-variation-settings:normal;opacity:1;vector-effect:none;fill:none;fill-opacity:1;fill-rule:evenodd;stroke:#ffffff;stroke-width:0.999999;stroke-linecap:butt;stroke-linejoin:miter;stroke-miterlimit:4;stroke-dasharray:none;stroke-dashoffset:0;stroke-opacity:1;stop-color:#000000;stop-opacity:1"
           id="ellipse1588"
           transform="matrix(0.26458333,0,0,0.26458333,3.9803207,-3.057591)"
           ry="1.8296386"
           rx="1.8959258"
           cy="14.230522"
           cx="8.754859" />
        <path
           id="path1590"
           style="fill:none;fill-opacity:0.97848;stroke:#ffffff;stroke-width:1;stroke-linecap:round;stroke-linejoin:round;stroke-miterlimit:4;stroke-dasharray:none;stroke-dashoffset:0;stroke-opacity:1;paint-order:normal"
           transform="matrix(0.26458333,0,0,0.26458333,2.0654885e-4,5.8251354)"
           d="m 0.100991,-7.4422998 -10.662501,-4.4165522 -4.416552,-10.6625 4.416552,-10.662501 10.66250019,-4.416553 10.66250081,4.416552 4.416553,10.662501 -4.416553,10.662501 -10.6625,4.4165522" />
        <path
           style="fill:#ffffff;fill-opacity:1;stroke:#ffffff;stroke-width:1px;stroke-linecap:butt;stroke-linejoin:miter;stroke-opacity:1"
           d="m -29.900552,-0.50509311 14.923271,1.17e-6"
           id="path1594"
           transform="scale(0.26458333)" />
        <path
           style="fill:#ffffff;stroke:#ffffff;stroke-width:1px;stroke-linecap:butt;stroke-linejoin:miter;stroke-opacity:1"
           d="m -21.113304,-21.719387 10.552575,10.551794"
           id="path1596"
           transform="scale(0.26458333)" />
        <path
           style="fill:none;stroke:#ffffff;stroke-width:1px;stroke-linecap:butt;stroke-linejoin:miter;stroke-opacity:1"
           d="M -21.113304,20.709201 -10.560729,10.157408"
           id="path1604"
           transform="scale(0.26458333)" />
        <ellipse
           style="font-variation-settings:normal;opacity:1;vector-effect:none;fill:none;fill-opacity:1;fill-rule:evenodd;stroke:#ffffff;stroke-width:0.999999;stroke-linecap:butt;stroke-linejoin:miter;stroke-miterlimit:4;stroke-dasharray:none;stroke-dashoffset:0;stroke-opacity:1;stop-color:#000000;stop-opacity:1"
           id="ellipse1606"
           transform="matrix(0.26458333,0,0,0.26458333,-0.30426156,-1.9877548)"
           ry="1.8296386"
           rx="1.8959258"
           cy="14.230522"
           cx="8.754859" />
        <ellipse
           style="font-variation-settings:normal;opacity:1;vector-effect:none;fill:none;fill-opacity:1;fill-rule:evenodd;stroke:#ffffff;stroke-width:0.999999;stroke-linecap:butt;stroke-linejoin:miter;stroke-miterlimit:4;stroke-dasharray:none;stroke-dashoffset:0;stroke-opacity:1;stop-color:#000000;stop-opacity:1"
           id="ellipse1608"
           transform="matrix(0.26458333,0,0,0.26458333,0.47849401,-3.9101141)"
           ry="1.8296386"
           rx="1.8959258"
           cy="14.230522"
           cx="8.754859" />
      </g>
      <path
         style="fill:none;stroke:#ffffff;stroke-width:1px;stroke-linecap:butt;stroke-linejoin:miter;stroke-opacity:1"
         d="m 0.1009906,-30.506636 7.8025e-4,14.92249"
         id="path1598"
         transform="scale(0.26458333)" />
      <path
         style="fill:none;stroke:#ffffff;stroke-width:1px;stroke-linecap:butt;stroke-linejoin:miter;stroke-opacity:1"
         d="M 0.10177166,14.57396 0.1009906,29.49645"
         id="path1602"
         transform="scale(0.26458333)" />
    </g>
    <path
       style="fill:#000000;fill-opacity:1;stroke:#3fffec;stroke-width:1px;stroke-linecap:butt;stroke-linejoin:round;stroke-opacity:1"
       d="M 29.112488,-18.475 33.274994,-0.50509312 29.112488,17.464814 37.617334,-0.50509312 Z"
       id="path1610"
       transform="matrix(0.26458333,0,0,0.26458333,0.10702803,0.13006544)" />
    <path
       style="fill:#000000;fill-opacity:1;stroke:#ffb61b;stroke-width:1px;stroke-linecap:butt;stroke-linejoin:round;stroke-opacity:1"
       d="m 29.112488,-18.475 4.626349,9.5991747 1.655193,-3.2087837 0.225098,9.5913021 1.998206,1.98821378 L 35.619128,1.4831207 35.39403,11.074423 33.738837,7.8656391 29.112488,17.464814 33.274994,-0.50509312 Z"
       id="path1616"
       transform="matrix(0.26458205,-8.231883e-4,8.231883e-4,0.26458205,0.10749197,0.16103094)" />
  </g>
</svg>
